# xmcd
#
# Track frame offsets: 
#        150
#        15918
#        29312
#        41997
#        56106
#        75448
#        88108
#        99861
#        111381
#        124621
#        139935
#        152374
#        166135
#        179219
#        194746
#        206293
#        219698
#        229900
#        243397
#        256079
#        267547
#        279167
#        305910
#        318405
#        331497
#
# Disc length: 4605 seconds
#
# Revision: 1
# Processed by: cddbd v1.5.2PL0 Copyright (c) Steve Scherf et al.
# Submitted via: ExactAudioCopyFreeDBPlugin 1.0
#
DISCID=6811fb19
DTITLE=Various Artist - The Willie Dixon Story: The Performer
DYEAR=2012
DGENRE=Blues
TTITLE0=The Four Jumps Of Jive - It's Just The Blues
TTITLE1=The Five Breezes - Sweet Louise
TTITLE2=The Big Three Trio - Signifying Monkey
TTITLE3=Willie Dixon - Walking The Blues
TTITLE4=Willie Dixon and Memphis Slim - I Got A Razor
TTITLE5=The Big Three Trio - My Love Will Never Die
TTITLE6=Willie Dixon and Memphis Slim - Built For Comfort
TTITLE7=The Five Breezes - Minute And Hour Blues
TTITLE8=The Big Three Trio - No One To Love Me
TTITLE9=Willie Dixon - Pain In My Heart
TTITLE10=Willie Dixon and Memphis Slim - Unlucky
TTITLE11=The Big Three Trio - I Ain't Gonna Be Your Monkey Man
TTITLE12=The Five Breezes - Swinging The Blues
TTITLE13=Willie Dixon and Memphis Slim - Move Me
TTITLE14=The Big Three Trio - Big Three Boogie
TTITLE15=Willie Dixon and Memphis Slim - Roll And Tumble
TTITLE16=Willie Dixon - 29 Ways
TTITLE17=The Big Three Trio - Violent Love
TTITLE18=The Five Breezes - Just A Jitterbug
TTITLE19=Willie Dixon and Memphis Slim - Beer Drinking Woman
TTITLE20=The Big Three Trio - Don't Let That Music Die
TTITLE21=Willie Dixon and Memphis Slim - Go Easy
TTITLE22=The Big Three Trio - You Sure Look Good To Me
TTITLE23=Willie Dixon - Crazy For My Baby
TTITLE24=The Big Three Trio - If The Sea Was Whiskey
EXTD=
EXTT0=
EXTT1=
EXTT2=
EXTT3=
EXTT4=
EXTT5=
EXTT6=
EXTT7=
EXTT8=
EXTT9=
EXTT10=
EXTT11=
EXTT12=
EXTT13=
EXTT14=
EXTT15=
EXTT16=
EXTT17=
EXTT18=
EXTT19=
EXTT20=
EXTT21=
EXTT22=
EXTT23=
EXTT24=
PLAYORDER=
